<svg xmlns="http://www.w3.org/2000/svg" xmlns:xlink="http://www.w3.org/1999/xlink" id="Capa_1" x="0px" y="0px" width="231px" height="150.223px" viewBox="-39.388 0 231 150.223" xml:space="preserve"><g>	<g>		<path fill="#097FFA" d="M134.886,21.631c-31.243,0-51.92,25.545-70.162,48.088C49.139,88.976,34.422,107.16,16.499,107.16   c-18.631,0-30.07-19.148-30.07-32.876c0-12.728,12.548-31.225,32.216-31.225c19.084,0,29.026,15.274,29.528,16.058   c3.092,5.003,9.658,6.576,14.687,3.51c5.054-3.078,6.654-9.67,3.574-14.724c-0.652-1.068-16.371-26.271-47.787-26.271   c-31.617,0-53.648,27.751-53.648,52.653c0,25.685,21.15,54.305,51.498,54.305c28.146,0,46.822-23.075,64.883-45.392   c16.708-20.639,32.489-40.138,53.507-40.138c12.506,0,20.722,4.242,25.114,12.959c3.805,7.565,3.803,16.125,3.8,19.088   c0,1.701-0.896,10.232-5.057,17.913c-4.745,8.749-11.479,12.822-21.215,12.822c-19.599,0-30.188-12.74-34.175-17.541   c-1.036-1.248-1.782-2.147-2.78-3.001c-4.488-3.845-11.256-3.328-15.108,1.166c-3.715,4.335-3.356,10.781,0.7,14.683   c0.196,0.218,0.427,0.508,0.705,0.845c5.196,6.253,20.999,25.271,50.654,25.271c36.043,0,47.699-35.145,47.699-52.304   c0.003-10.929-2.043-20.543-6.09-28.582C173.453,35.094,161.162,21.631,134.886,21.631z"></path>	</g></g></svg>